<?xml version="1.0" encoding="utf-8"?>
<!-- Generator: Adobe Illustrator 27.4.0, SVG Export Plug-In . SVG Version: 6.00 Build 0)  -->
<svg version="1.1" id="Layer_1" xmlns="http://www.w3.org/2000/svg" xmlns:xlink="http://www.w3.org/1999/xlink" x="0px" y="0px"
	 viewBox="0 0 2000 610" style="enable-background:new 0 0 2000 610;" xml:space="preserve">
<style type="text/css">
	.st0{fill-rule:evenodd;clip-rule:evenodd;fill:#FFFFFF;}
	.st1{fill-rule:evenodd;clip-rule:evenodd;fill:none;stroke:#FFFFFF;stroke-width:20;stroke-miterlimit:10;}
	.st2{fill-rule:evenodd;clip-rule:evenodd;fill:#F07D00;}
</style>
<g>
	<path class="st0" d="M607.21,219.55c8.61,0,15.63,2.72,21.06,8.15c5.43,5.44,8.71,12.69,9.85,21.74
		c6.56-10.41,13.93-18.35,22.08-23.78c8.15-5.44,16.42-8.15,24.8-8.15c6.11,0,12,1.36,17.66,4.08c5.66,2.71,10.64,6.96,14.95,12.74
		c4.3,5.77,7.75,13.19,10.36,22.25c2.6,9.06,3.9,20.04,3.9,32.95c0,15.4-1.87,29.45-5.6,42.13c-3.74,12.69-8.72,23.56-14.95,32.61
		c-6.23,9.06-13.25,16.09-21.06,21.06c-7.81,4.98-15.8,7.48-23.95,7.48c-9.29,0-16.93-1.53-22.93-4.59
		c-6-3.06-11.16-7.86-15.46-14.44l-5.78,68.62c-2.94,1.81-6.46,3.06-10.53,3.74c-4.08,0.68-9.4,1.02-15.97,1.02
		c-3.17,0-6.17-0.4-9-1.19c-2.84-0.79-5.27-2.09-7.3-3.91c-2.04-1.81-3.57-4.36-4.59-7.64c-1.02-3.29-1.31-7.42-0.85-12.4
		l12.91-149.14c0.68-7.02-1.93-10.53-7.82-10.53h-9.17c-1.81-4.98-2.72-10.08-2.72-15.28c0-9.74,3.22-16.76,9.68-21.06
		C583.26,221.71,593.39,219.55,607.21,219.55 M663.94,264.73c-5.21,0-10.53,3.29-15.97,9.85c-5.44,6.57-10.08,16.76-13.93,30.58
		l-2.72,32.27c5.44,5.89,12.34,8.84,20.72,8.84c9.74,0,17.1-4.42,22.08-13.25c4.98-8.84,7.47-20.38,7.47-34.65
		C681.6,275.95,675.71,264.73,663.94,264.73z"/>
	<path class="st0" d="M884.75,266.09c0,17.66-7.65,31.71-22.93,42.12c-15.29,10.42-38.11,18.24-68.46,23.44
		c4.3,11.33,12.68,16.99,25.14,16.99c4.76,0,9.62-0.34,14.61-1.02c4.98-0.68,9.79-1.64,14.44-2.89c4.64-1.24,8.94-2.6,12.91-4.08
		c3.96-1.47,7.31-3.11,10.03-4.93c1.58,1.59,3.06,3.8,4.41,6.63c1.36,2.84,2.04,6.4,2.04,10.7c0,10.19-3.62,18-10.87,23.44
		c-5.89,4.53-13.25,8.38-22.09,11.55c-8.83,3.17-20.16,4.76-33.97,4.76c-10.87,0-20.5-1.99-28.87-5.95
		c-8.38-3.96-15.4-9.45-21.06-16.48c-5.66-7.01-9.91-15.4-12.74-25.14c-2.83-9.73-4.25-20.5-4.25-32.27
		c0-15.63,2.43-29.44,7.3-41.45c4.87-12,11.27-22.14,19.2-30.4c7.92-8.27,16.99-14.49,27.17-18.68c10.2-4.19,20.72-6.29,31.59-6.29
		c18.8,0,32.9,4.76,42.3,14.27C880.05,239.94,884.75,251.83,884.75,266.09 M824.28,257.6c-2.72,0-5.89,0.97-9.51,2.89
		c-3.62,1.93-7.08,4.76-10.36,8.49c-3.28,3.74-6.23,8.38-8.83,13.93c-2.6,5.55-4.36,11.84-5.26,18.85
		c10.42-2.04,18.91-4.3,25.48-6.79c6.56-2.49,11.77-5.04,15.63-7.65c3.85-2.6,6.51-5.21,7.99-7.81c1.47-2.6,2.21-5.15,2.21-7.64
		c0-3.4-1.25-6.63-3.74-9.69C835.38,259.13,830.85,257.6,824.28,257.6z"/>
	<path class="st0" d="M964.93,259.3l-5.44,67.27c-0.46,6.79,0.17,11.44,1.87,13.93c1.69,2.5,4.81,3.74,9.34,3.74h27.52
		c0.45,2.72,0.79,5.55,1.02,8.49c0.22,2.94,0.34,5.66,0.34,8.15c0,4.08-0.8,7.81-2.38,11.21c-1.59,3.4-4.37,6.4-8.32,9
		c-3.97,2.61-9.23,4.64-15.8,6.11c-6.57,1.48-14.72,2.21-24.46,2.21c-5.89,0-11.27-0.79-16.13-2.38c-4.87-1.58-9-4.3-12.4-8.15
		c-3.4-3.85-5.95-8.89-7.64-15.12c-1.7-6.23-2.1-14.1-1.2-23.61l6.8-80.85h-21.4c-2.04-4.07-3.05-8.83-3.05-14.27
		c0-7.02,1.07-13.02,3.23-18c2.15-4.98,7.18-7.47,15.11-7.47l9.51,0l3.4-36.01c2.72-1.36,6.4-2.55,11.04-3.57
		c4.63-1.02,9.56-1.53,14.77-1.53c6.12,0,11.04,1.42,14.78,4.25c3.74,2.83,5.27,7.87,4.58,15.12l-2.04,21.74h36.35
		c2.72,2.72,4.08,6.91,4.08,12.57c0,2.04-0.28,4.65-0.85,7.81c-0.57,3.18-1.59,6.17-3.06,9c-1.47,2.83-3.62,5.27-6.45,7.3
		c-2.83,2.04-6.4,3.06-10.7,3.06H964.93z"/>
	<path class="st0" d="M1010.1,373.45c0-3.85,0.62-7.64,1.87-11.38c1.24-3.74,3.11-7.19,5.6-10.36l71.68-89.35h-58.43
		c-0.91-2.04-1.64-4.25-2.21-6.63c-0.56-2.38-0.85-4.93-0.85-7.64c0-2.94,0.28-6.11,0.85-9.51c0.57-3.4,1.58-6.51,3.06-9.34
		c1.47-2.83,3.57-5.15,6.28-6.96c2.72-1.81,6.22-2.72,10.53-2.72l107.01,0c1.36,2.72,2.04,6.91,2.04,12.57
		c0,5.89-1.02,10.65-3.06,14.27c-2.04,3.63-4.3,7.02-6.79,10.19l-73.72,91.38h73.38c0.68,1.36,1.24,3.12,1.7,5.27
		c0.45,2.15,0.68,5.15,0.68,9c0,2.72-0.17,5.66-0.51,8.83c-0.34,3.18-1.19,6.12-2.55,8.84c-1.36,2.72-3.4,4.98-6.12,6.8
		c-2.72,1.81-6.34,2.72-10.87,2.72h-116.53C1011.12,385.33,1010.1,380.02,1010.1,373.45"/>
	<path class="st0" d="M1157.2,373.45c0-3.85,0.62-7.64,1.87-11.38c1.24-3.74,3.11-7.19,5.6-10.36l71.68-89.35h-58.43
		c-0.92-2.04-1.65-4.25-2.22-6.63c-0.56-2.38-0.85-4.93-0.85-7.64c0-2.94,0.28-6.11,0.85-9.51c0.57-3.4,1.59-6.51,3.06-9.34
		c1.47-2.83,3.57-5.15,6.28-6.96c2.72-1.81,6.23-2.72,10.53-2.72l107.02,0c1.36,2.72,2.03,6.91,2.03,12.57
		c0,5.89-1.02,10.65-3.06,14.27c-2.04,3.63-4.3,7.02-6.79,10.19l-73.72,91.38h73.38c0.68,1.36,1.24,3.12,1.7,5.27
		c0.45,2.15,0.68,5.15,0.68,9c0,2.72-0.17,5.66-0.51,8.83c-0.34,3.18-1.19,6.12-2.55,8.84c-1.36,2.72-3.4,4.98-6.12,6.8
		c-2.71,1.81-6.34,2.72-10.87,2.72h-116.52C1158.22,385.33,1157.2,380.02,1157.2,373.45"/>
	<path class="st0" d="M1377,216.15c9.28,0,16.99,1.08,23.1,3.23c6.12,2.15,10.92,4.92,14.44,8.32c3.51,3.4,6,7.14,7.47,11.21
		c1.47,4.08,2.21,7.93,2.21,11.55c0,4.75-0.51,8.44-1.53,11.04c-1.02,2.61-2.44,5.26-4.25,7.98c-6.79-2.49-14.05-4.53-21.74-6.12
		c-7.7-1.58-14.05-2.38-19.03-2.38c-6.57,0-10.93,1.08-13.08,3.23c-2.15,2.15-3.22,4.25-3.22,6.28c0,2.27,1.3,4.59,3.91,6.97
		c2.6,2.38,8.2,5.72,16.81,10.02c12.68,6.12,21.85,12.86,27.52,20.21c5.66,7.36,8.49,16.37,8.49,27.01c0,7.47-1.13,14.66-3.4,21.57
		c-2.27,6.91-5.94,13.08-11.04,18.51c-5.09,5.44-11.67,9.8-19.7,13.08c-8.04,3.28-17.72,4.93-29.05,4.93
		c-8.15,0-15.29-0.96-21.4-2.89c-6.11-1.93-11.33-4.47-15.63-7.65c-4.31-3.17-7.53-6.85-9.68-11.04c-2.15-4.19-3.23-8.54-3.23-13.07
		c0-4.53,0.56-8.66,1.7-12.4c1.13-3.74,3.51-7.87,7.13-12.4c6.12,4.98,12.85,8.89,20.22,11.72c7.36,2.83,15,4.25,22.93,4.25
		c7.02,0,12-0.9,14.95-2.72c2.94-1.81,4.42-4.07,4.42-6.79c0-0.9-0.34-1.81-1.02-2.72c-0.68-0.91-1.99-2.04-3.91-3.4
		c-1.92-1.36-4.64-3.06-8.15-5.1c-3.52-2.04-8.1-4.53-13.76-7.47c-10.19-5.21-18.12-11.77-23.78-19.7
		c-5.66-7.93-8.49-17.44-8.49-28.54c0-7.69,1.36-15,4.07-21.91c2.72-6.91,6.63-12.96,11.72-18.17c5.1-5.21,11.38-9.29,18.86-12.23
		C1359.34,217.63,1367.71,216.15,1377,216.15"/>
	<path class="st0" d="M1477.21,151.61c6.34,0,11.49,1.31,15.46,3.91c3.96,2.6,5.72,7.19,5.27,13.76l-7.81,87.65
		c7.25-12.91,15.51-22.93,24.8-30.06c9.28-7.14,19.47-10.71,30.57-10.71c9.51,0,17.61,3.06,24.29,9.17
		c6.68,6.12,10.02,16.08,10.02,29.9v6.96c0,2.38-0.12,4.93-0.34,7.64l-7.13,78.48c-0.46,5.9,1.58,8.83,6.12,8.83h7.47
		c0.45,0.91,0.79,1.87,1.02,2.89c0.23,1.02,0.34,2.44,0.34,4.25c0,8.15-3.4,14.38-10.19,18.68c-6.79,4.3-16.3,6.45-28.53,6.45
		c-11.33,0-18.74-2.83-22.25-8.49c-3.52-5.66-4.82-13.82-3.91-24.46l6.45-73.04c0.22-1.13,0.34-2.15,0.34-3.06c0-0.9,0-1.81,0-2.72
		c0-3.85-1.25-6.62-3.73-8.32c-2.5-1.7-5.67-2.55-9.52-2.55c-5.43,0-10.65,2.44-15.63,7.3c-4.98,4.87-9.63,13.08-13.92,24.63
		l-7.47,86.29c-2.27,1.35-5.66,2.43-10.19,3.23c-4.54,0.79-9.74,1.19-15.63,1.19c-2.72,0-5.38-0.28-7.98-0.85
		c-2.6-0.56-4.87-1.64-6.79-3.23c-1.93-1.58-3.45-3.91-4.58-6.96c-1.14-3.06-1.48-7.08-1.02-12.06l18.35-209.27
		c2.72-1.58,6.4-2.89,11.04-3.91C1466.73,152.12,1471.78,151.61,1477.21,151.61"/>
	<path class="st0" d="M1597.82,321.47c0-17.44,2.09-32.72,6.28-45.86c4.19-13.13,9.96-24.06,17.33-32.78
		c7.36-8.72,15.91-15.29,25.65-19.7c9.74-4.42,20.04-6.63,30.92-6.63c9.28,0,17.89,1.48,25.82,4.42
		c7.92,2.95,14.78,7.47,20.55,13.58c5.78,6.12,10.25,13.82,13.42,23.1c3.17,9.29,4.76,20.38,4.76,33.29
		c0,16.76-2.1,31.54-6.29,44.33c-4.19,12.8-9.91,23.44-17.15,31.93c-7.25,8.49-15.75,14.9-25.48,19.2
		c-9.74,4.3-20.04,6.45-30.91,6.45c-9.51,0-18.24-1.53-26.16-4.59c-7.93-3.06-14.78-7.64-20.55-13.76
		c-5.78-6.11-10.25-13.59-13.42-22.42C1599.4,343.21,1597.82,333.02,1597.82,321.47 M1646.39,316.71c0,12.46,1.98,21.4,5.95,26.84
		c3.96,5.43,8.89,8.15,14.78,8.15c8.15,0,14.55-4.25,19.2-12.74c4.64-8.49,6.96-23.27,6.96-44.33c0-12.45-1.98-21.57-5.94-27.35
		c-3.97-5.78-8.89-8.66-14.78-8.66c-7.25,0-13.42,4.54-18.51,13.59C1648.94,281.27,1646.39,296.11,1646.39,316.71z"/>
	<path class="st0" d="M1793.15,219.55c8.6,0,15.62,2.72,21.06,8.15c5.44,5.44,8.72,12.69,9.85,21.74
		c6.57-10.41,13.93-18.35,22.08-23.78c8.15-5.44,16.42-8.15,24.8-8.15c6.11,0,12,1.36,17.66,4.08c5.66,2.71,10.64,6.96,14.95,12.74
		c4.3,5.77,7.75,13.19,10.36,22.25c2.61,9.06,3.91,20.04,3.91,32.95c0,15.4-1.87,29.45-5.61,42.13
		c-3.73,12.69-8.72,23.56-14.94,32.61c-6.24,9.06-13.25,16.09-21.06,21.06c-7.81,4.98-15.8,7.48-23.95,7.48
		c-9.29,0-16.93-1.53-22.93-4.59c-6-3.06-11.16-7.86-15.46-14.44l-5.78,68.62c-2.94,1.81-6.45,3.06-10.53,3.74
		c-4.07,0.68-9.4,1.02-15.97,1.02c-3.17,0-6.17-0.4-9-1.19c-2.84-0.79-5.27-2.09-7.3-3.91c-2.04-1.81-3.57-4.36-4.59-7.64
		c-1.02-3.29-1.31-7.42-0.85-12.4l12.91-149.14c0.68-7.02-1.93-10.53-7.82-10.53h-9.17c-1.82-4.98-2.72-10.08-2.72-15.28
		c0-9.74,3.23-16.76,9.68-21.06C1769.2,221.71,1779.33,219.55,1793.15,219.55 M1849.88,264.73c-5.21,0-10.53,3.29-15.97,9.85
		c-5.44,6.57-10.08,16.76-13.93,30.58l-2.71,32.27c5.44,5.89,12.34,8.84,20.72,8.84c9.74,0,17.09-4.42,22.08-13.25
		c4.98-8.84,7.47-20.38,7.47-34.65C1867.55,275.95,1861.66,264.73,1849.88,264.73z"/>
	<path class="st1" d="M542.06,304.02c0,126.99-102.95,229.94-229.94,229.94c-126.99,0-229.94-102.95-229.94-229.94
		c0-126.99,102.95-229.94,229.94-229.94C439.11,74.08,542.06,177.03,542.06,304.02"/>
	<path class="st0" d="M140.5,434.13c-8.02-44.16-15-107.28-6.53-169.94c15.42-114.1,100.62-98.36,115.23-93.42
		c16.42,5.55,55.05,33.77,89.83,26.5c30.98-6.47,44.4-9.25,45.95,1.23c1.54,10.48,4.01,109.47-69.69,77.09
		c-9.06,8.24-19.11,18.75-28.83,31.88c-17.29,23.35-26.96,46.1-32.54,63.1c0,0,2.78-29.29,33.31-50.57c0,0,11.2,62.56,31.41,123.65
		c5.9-73.38,30.67-168.79,115.22-206.91c0,0-6.02,22.67,0,32.84c0,0,0.23-4.63,4.63-7.17c0,0,34.55,19.77,40.7,31.92
		c7.51,14.8,11.1,21.28,17.35,23.82c6.24,2.54,14.57,3.24,13.41,9.71c-1.15,6.48-6.93,12.26-8.56,17.35
		c-1.62,5.09-21.51,32.84-43.71,7.17l13.64,15.5c0,0-72.62,10.18-72.85,49.49c0,0,13.64-22.2,30.76-27.52
		c19.06,45.88,29.08,81.5,25.63,87.18c-2.66,4.38-6.49,9.93-6.49,9.93s-1.7,2.47-3.28,4.62c-2.9,3.97-16.51,17.12-35.41,24.42
		c-89.65,34.6-162,13.62-162,13.62c-23.79-6.9-61.92-17.85-87.42-52.97C148.76,460.8,143.29,445.03,140.5,434.13z"/>
	<g>
		<path class="st2" d="M190.09,200.43c-5.09-7.63-4.63,18.96,1.16,34.23c5.78,15.27,18.96,36.08,0,36.54
			c-18.97,0.46-29.84-29.84-33.77-38.62c-3.93-8.79-5.32-1.39,2.78,20.36c8.09,21.74,31.69,32.38,47.41,27.29
			c15.73-5.09,2.31-26.14-8.56-41.4C188.24,223.56,190.09,200.43,190.09,200.43"/>
		<path class="st2" d="M271.97,210.38c0,0-11.79,11.79-22.67,10.41c-10.87-1.39-8.33,6.24,3.24,4.85
			C264.1,224.26,281.91,209.46,271.97,210.38"/>
		<path class="st2" d="M376.97,197.2c-6.71-2.54-23.59,5.78-23.59,5.78c-5.32,5.55,15.96,15.5,20.58,15.72
			C378.59,218.94,383.68,199.74,376.97,197.2"/>
		<path class="st2" d="M469.71,309.13c0,0-10.64,5.32-19.43,4.16c-8.79-1.16,0,4.16,4.62,4.16
			C459.53,317.46,475.72,313.76,469.71,309.13"/>
	</g>
</g>
</svg>
